<svg width="31" height="30" viewBox="0 0 31 30" fill="none" xmlns="http://www.w3.org/2000/svg">
<rect x="0.5" width="30" height="30" rx="15" fill="white"/>
<path fill-rule="evenodd" clip-rule="evenodd" d="M15.499 1.7002C8.15558 1.7002 2.2002 7.65478 2.2002 15.0006C2.2002 20.876 6.0107 25.8614 11.2957 27.621C11.9612 27.7426 12.2037 27.3318 12.2037 26.9792C12.2037 26.6632 12.1922 25.8272 12.1857 24.7176C8.48626 25.521 7.7057 22.9344 7.7057 22.9344C7.10068 21.3978 6.2287 20.9886 6.2287 20.9886C5.02112 20.164 6.32014 20.1804 6.32014 20.1804C7.65508 20.2742 8.35724 21.5512 8.35724 21.5512C9.54358 23.5834 11.4705 22.9964 12.2282 22.656C12.349 21.797 12.6927 21.2108 13.0724 20.8784C10.1192 20.542 7.01414 19.4014 7.01414 14.305C7.01414 12.8525 7.5326 11.6661 8.38338 10.7362C8.24622 10.3998 7.7898 9.04768 8.51402 7.21632C8.51402 7.21632 9.63012 6.8587 12.171 8.579C13.2316 8.28426 14.3698 8.1373 15.5006 8.13158C16.6306 8.1373 17.768 8.28426 18.8302 8.579C21.3694 6.8587 22.4838 7.21632 22.4838 7.21632C23.2098 9.04768 22.7534 10.3998 22.617 10.7362C23.4694 11.6661 23.9838 12.8525 23.9838 14.305C23.9838 19.4145 20.8738 20.5388 17.9117 20.8678C18.3885 21.2786 18.8139 22.0902 18.8139 23.3312C18.8139 25.1086 18.7975 26.5432 18.7975 26.9792C18.7975 27.3352 19.0376 27.7492 19.712 27.6192C24.993 25.8566 28.8002 20.8752 28.8002 15.0006C28.8002 7.65478 22.8448 1.7002 15.499 1.7002Z" fill="black"/>
</svg>
