<svg width="30" height="30" viewBox="0 0 30 30" fill="none" xmlns="http://www.w3.org/2000/svg">
<path fill-rule="evenodd" clip-rule="evenodd" d="M3.97705 14.7897C3.97705 21.0028 9.01385 26.0397 15.227 26.0397C19.338 26.0397 22.9378 23.8333 24.9005 20.5378C20.6414 21.9114 15.596 21.1938 12.2093 17.8072C8.79578 14.3936 8.1383 9.35551 9.56455 5.11648C6.23948 7.09941 3.97705 10.737 3.97705 14.7897ZM26.2145 17.2317C27.2464 16.6279 28.7995 17.3113 28.4808 18.4636C26.8738 24.2737 21.5486 28.5397 15.227 28.5397C7.63314 28.5397 1.47705 22.3836 1.47705 14.7897C1.47705 8.48625 5.89993 3.07338 11.7499 1.5003C12.9049 1.1897 13.5614 2.74255 12.9359 3.76201C10.6061 7.55852 10.7707 12.8329 13.977 16.0393C17.1456 19.2081 22.4014 19.4631 26.2145 17.2317Z" fill="#0F0F0F"/>
</svg>
