<svg width="30" height="30" viewBox="0 0 30 30" fill="none" xmlns="http://www.w3.org/2000/svg">
<g clip-path="url(#clip0_21240_39)">
<path d="M13.125 5.625V0H16.875V5.625H13.125Z" fill="#111827"/>
<path d="M16.875 24.375V30H13.125V24.375H16.875Z" fill="#111827"/>
<path d="M20.625 15C20.625 18.1066 18.1066 20.625 15 20.625C11.8934 20.625 9.375 18.1066 9.375 15C9.375 11.8934 11.8934 9.375 15 9.375C18.1066 9.375 20.625 11.8934 20.625 15Z" fill="#111827"/>
<path d="M0 16.875H5.625V13.125H0V16.875Z" fill="#111827"/>
<path d="M30 13.125H24.375V16.875H30V13.125Z" fill="#111827"/>
<path d="M7.04486 9.69652L3.06738 5.71905L5.71905 3.06738L9.69652 7.04486L7.04486 9.69652Z" fill="#111827"/>
<path d="M22.9548 20.3037L26.9325 24.2812L24.2807 26.933L20.3032 22.9553L22.9548 20.3037Z" fill="#111827"/>
<path d="M5.71905 26.933L9.69652 22.9553L7.04486 20.3037L3.06738 24.2813L5.71905 26.933Z" fill="#111827"/>
<path d="M24.2807 3.06738L20.3032 7.04486L22.9548 9.69652L26.9325 5.71905L24.2807 3.06738Z" fill="#111827"/>
</g>
<defs>
<clipPath id="clip0_21240_39">
<rect width="30" height="30" fill="white"/>
</clipPath>
</defs>
</svg>
